<?xml version="1.0" encoding="UTF-8" standalone="no"?>
<!DOCTYPE svg PUBLIC "-//W3C//DTD SVG 1.1//EN" "http://www.w3.org/Graphics/SVG/1.1/DTD/svg11.dtd">
<svg width="100%" height="100%" viewBox="0 0 30 31" version="1.1" xmlns="http://www.w3.org/2000/svg" xmlns:xlink="http://www.w3.org/1999/xlink" xml:space="preserve" xmlns:serif="http://www.serif.com/" style="fill-rule:evenodd;clip-rule:evenodd;stroke-linejoin:round;stroke-miterlimit:2;">
    <g transform="matrix(0.0604839,0,0,0.0604839,0,0)">
        <path d="M248,8C111,8 0,119 0,256C0,393 111,504 248,504C385,504 496,393 496,256C496,119 385,8 248,8ZM392,394.4L392,280C392,266.8 381.2,256 368,256C354.8,256 344,266.8 344,280L344,431.4C315.5,447 282.8,456 248,456C213.2,456 180.5,447 152,431.4L152,280C152,266.8 141.2,256 128,256C114.8,256 104,266.8 104,280L104,394.4C69.4,358.4 48,309.7 48,256C48,145.7 137.7,56 248,56C358.3,56 448,145.7 448,256C448,309.7 426.6,358.5 392,394.4ZM205.8,234.5C210.2,232.1 212.7,227.1 211.9,222.1C207.9,196.9 177.7,180 152.1,180C126.5,180 96.2,196.9 92.3,222.1C91.5,227.1 94,232.1 98.4,234.5C102.8,236.9 108.3,236.3 112.1,232.9L121.6,224.4C136.4,211.2 167.8,211.2 182.6,224.4L192.1,232.9C194.6,235.2 200,237.7 205.8,234.5ZM344,180C318.3,180 288.1,196.9 284.2,222.1C283.4,227.1 285.9,232.1 290.3,234.5C294.8,236.9 300.2,236.3 304,232.9L313.5,224.4C328.3,211.2 359.7,211.2 374.5,224.4L384,232.9C386.5,235.1 392,237.6 397.7,234.5C402.1,232.1 404.6,227.1 403.8,222.1C399.9,196.9 369.7,180 344,180ZM248,272C217.1,272 192,300.7 192,336C192,371.3 217.1,400 248,400C278.9,400 304,371.3 304,336C304,300.7 278.9,272 248,272Z" style="fill:rgb(247,133,1);fill-rule:nonzero;"/>
    </g>
</svg>
